<?xml version="1.0" encoding="utf-8"?>
<!-- Generator: Adobe Illustrator 27.6.1, SVG Export Plug-In . SVG Version: 6.00 Build 0)  -->
<svg version="1.1" id="Layer_1" xmlns="http://www.w3.org/2000/svg" xmlns:xlink="http://www.w3.org/1999/xlink" x="0px" y="0px"
	 viewBox="0 0 247 310" style="enable-background:new 0 0 247 310;" xml:space="preserve">
<style type="text/css">
	.st0{fill:#05C605;}
	.st1{fill:#FFFFFF;}
</style>
<g>
	<g>
		<g>
			<path class="st0" d="M183,63.8C165.8,63.8,152,50,152,33.4s13.8-30.5,30.5-30.5c16.7,0,30.5,13.8,30.5,30.5S199.7,63.8,183,63.8z
				"/>
			<path class="st1" d="M183,5.8c15.5,0,27.6,12.7,27.6,27.6S198,61,183,61c-15,0-28.2-12.1-28.2-27.6S167.5,5.8,183,5.8 M183,0
				c-18.4,0-33.4,15-33.4,33.4s15,33.4,33.4,33.4s33.4-15,33.4-33.4S201.4,0,183,0L183,0z"/>
		</g>
		<g>
			<path class="st0" d="M154.3,306.5c-6.3,0-12.7-2.9-16.1-7.5c-2.3-2.9-4.6-8.1-2.9-15.5l13.8-55.8c-12.1-14.4-25.9-25.3-40.8-33.9
				c-2.3-1.7-4.6-3.5-6.3-5.2c-8.1,13.2-16.7,28.2-24.7,42.6c-12.7,23-25.9,46.6-39.1,63.3c-4,5.2-9.2,7.5-15,7.5
				c-8.1,0-15.5-4.6-19-12.1c-3.5-6.3-2.3-13.8,2.3-20.1c32.2-48.3,69-111,76.5-123.7c0.6-2.3,1.7-4,2.3-6.3
				c6.3-12.1,12.7-24.7,20.7-39.1l-18.4,1.7l-16.7,33.4c-2.9,6.3-8.6,9.8-15,9.8c-6.9,0-13.8-4-17.3-9.8s-4-12.7-0.6-18.4
				c1.7-2.9,3.5-6.9,5.2-11.5c6.9-16.7,16.1-39.1,33.4-40.3l62.1-4.6h1.2c2.3-0.6,4.6-1.2,7.5-1.2c15.5,0,29.9,11.5,33.4,25.9
				c11.5,25.3,27.6,40.3,49.5,46.6c10.9,2.9,14.4,12.7,13.2,20.7c-1.2,8.1-7.5,16.7-17.8,16.7c-1.7,0-4,0-5.8-0.6
				c-23-6.9-40.8-19-55.8-38.5c-8.1,13.8-15,26.5-20.7,38.5c16.1,11.5,31.1,25.3,43.7,41.4c4.6,6.3,4.6,11.5,3.5,15.5
				c0,1.7,0,3.5-0.6,5.2L175,291C172.1,300.2,164,306.5,154.3,306.5z"/>
			<path class="st1" d="M146.8,62.1c13.8,0,27.6,9.8,30.5,23.6c10.4,23,25.9,40.8,51.2,48.3c18.4,5.2,12.7,32.2-3.5,32.2
				c-1.7,0-2.9,0-4.6-0.6c-25.3-7.5-43.1-21.9-56.9-40.8c-8.1,15-16.7,29.9-24.2,44.9c17.3,12.1,32.2,25.9,45.4,42.6
				c3.5,4.6,4,9.2,2.9,13.2c0,1.7,0,2.9-0.6,5.2c-5.2,20.1-10.4,39.7-15,59.8c-2.3,9.2-9.8,13.2-17.3,13.2
				c-9.8,0-19.6-7.5-16.1-19.6c4.6-19,9.8-38,14.4-56.9c-12.1-14.4-26.5-26.5-42.6-35.7c-4-2.3-6.3-5.2-7.5-8.6
				C80.6,216.8,58.8,264,36.4,292.7c-3.5,4.6-8.1,6.3-12.7,6.3c-12.7,0-24.2-14.4-14.4-27.6C42.1,222,80.1,158.2,86.4,147.2
				c0.6-1.7,1.2-4,2.3-5.8c7.5-15,15.5-29.3,23.6-43.7c-8.6,0.6-17.3,1.2-25.9,1.7c-5.8,11.5-11.5,23-17.8,34.5
				c-2.9,5.8-7.5,8.1-12.7,8.1c-10.9,0-21.9-11.5-15.5-24.7c7.5-15,16.7-48.3,36.2-50c20.7-1.7,41.4-3.5,62.1-4.6c0,0,0,0,0.6,0
				c0.6,0,0.6,0,1.2,0C142.2,62.1,144.5,62.1,146.8,62.1 M146.8,56.4c-2.3,0-5.2,0.6-7.5,1.2h-0.6h-0.6l-57.5,4.6H76
				c-19,1.7-28.8,24.7-35.7,42c-1.7,4-3.5,8.1-4.6,10.9c-3.5,6.9-3.5,15,0.6,21.3c4,6.9,12.1,11.5,20.1,11.5c7.5,0,13.8-4,17.8-11.5
				l7.5-14.4l8.6-17.3h2.3l9.2-0.6c-6.9,12.7-13.2,24.2-18.4,34.5c-1.2,1.7-1.7,4-2.3,6.3C73.2,158.2,36.9,220.3,4.7,268
				c-5.2,6.9-6.3,15.5-2.3,23c4,8.1,12.7,13.8,21.9,13.8c6.9,0,12.7-2.9,17.3-8.6c13.2-17.3,26.5-40.8,39.7-63.8
				c7.5-13.2,15-27,23-39.1c1.2,1.2,2.9,2.3,4.6,3.5c14.4,8.1,27,19,39.1,32.2l-8.1,31.6l-5.8,23c-1.7,6.9-0.6,13.2,3.5,17.8
				c4,5.2,10.9,8.6,18.4,8.6c10.9,0,20.1-6.9,23-17.8c5.2-20.1,10.4-39.7,15-59.8c0.6-1.7,0.6-3.5,0.6-5.8c1.7-6.3,0-12.7-4.6-17.8
				c-12.7-15.5-27-29.3-42.6-40.8c5.2-10.4,10.9-21.3,17.8-32.8c15,17.8,32.8,29.3,54.6,36.2c2.3,0.6,4.6,1.2,6.3,1.2
				c11.5,0,19-9.8,20.7-19c1.2-9.2-2.9-20.1-15.5-24.2c-21.3-6.3-36.2-20.1-47.7-44.9C179.6,68.4,163.5,56.4,146.8,56.4L146.8,56.4z
				"/>
		</g>
	</g>
</g>
</svg>
