<?xml version="1.0" encoding="utf-8"?>
<!-- Generator: Adobe Illustrator 26.5.2, SVG Export Plug-In . SVG Version: 6.00 Build 0)  -->
<svg version="1.1" id="Layer_1" xmlns="http://www.w3.org/2000/svg" xmlns:xlink="http://www.w3.org/1999/xlink" x="0px" y="0px"
	 viewBox="0 0 477.8 318.6" style="enable-background:new 0 0 477.8 318.6;" xml:space="preserve">
<style type="text/css">
	.st0{fill:#0B0D08;}
	.st1{fill:#998E94;}
	.st2{fill:#24ADC7;}
	.st3{fill:#0F0B02;}
</style>
<g>
	<path class="st0" d="M0,180.8c10.3-20.3,20.7-40.6,30.7-61.1c2.8-5.7,6.3-8.3,12.9-8.2c24.2,0.4,48.5,0.1,72.8,0.1
		c8.5,0,11.1,2.6,11.1,11.1c0,26.4,0.1,52.9-0.1,79.3c0,3.7,0.8,5,4.8,5c31.2-0.2,62.5-0.1,93.7,0c3.4,0,4.9-0.5,4.9-4.5
		c-0.2-11.5,0-11.6-11.4-11.4c-28.8,0.6-51.2-10.9-66.3-35.6c-6.7-10.8-9.5-22.8-9.8-35.5c-0.3-14.5-0.9-29,5-42.7
		c11.7-27,32-42.5,61.6-45c3.8-0.3,5.2-1.4,4.9-5.2c-0.3-5.6-0.2-11.2-0.1-16.8c0.1-7.2,3.1-10.3,10.2-10.4
		c14.6-0.1,29.2-0.1,43.8,0c6.6,0,9.7,3.2,9.9,9.7c0.1,5.7,0.3,11.5-0.1,17.3c-0.2,4,1.1,4.9,5,4.9c40-0.1,79.9-0.1,119.9-0.1
		c22.1,0,41,7.6,55.9,24.2c11.3,12.6,17.5,27.5,18,44.4c0.4,12.8,1,25.7-2.5,38.4c-7.9,29.2-35.8,51.4-66,52.2
		c-5.3,0.1-10.6,0.2-15.9,0c-2.5-0.1-3.1,0.8-3.2,3.2c-0.5,12.7-0.6,12.7,11.9,12.7c21.6,0,43.2,0,64.8,0c8.2,0,11,2.7,11,10.8
		c0,14.1,0,28.3,0,42.4c0,7.6-2.8,10.4-10.3,10.6c-3.3,0.1-6.5,0.2-9.8,0c-3.5-0.3-4.6,0.9-4.2,4.5c1.2,11.6-2.3,21.9-10.3,30.3
		c-10.8,11.4-24.3,15.5-39.5,11.2c-15.9-4.4-25.5-15.2-28.7-31.5c-0.7-3.7-1.2-7.4-0.2-11.1c0.8-2.9-0.7-3.8-3.1-3.3
		c-2.2,0.5-6.3-2.2-5.8,3.2c0.5,5.6,0.2,11.1-1.5,16.5c-5.6,17.9-22.1,28.5-38.8,27.7c-20.9-1-35.8-15.1-38.3-34.6
		c-0.4-3.1-0.9-6.1,0-9.2c0.8-3-0.6-3.7-3.4-3.7c-59.1,0.1-118.1,0.1-177.2,0c-3.1,0-3.9,0.7-3.5,4c2.9,20.7-13.7,40.8-34.5,43.3
		c-25.3,3-46.7-18.3-44.2-42.4c0.4-3.6-0.4-5.2-4.3-4.8c-2.6,0.3-5.3,0-7.9,0.1c-4.9,0.2-9.2-0.9-12.1-5.3C0,237.4,0,209.1,0,180.8z
		 M310.3,175.2C310.3,175.2,310.3,175.2,310.3,175.2c32.3,0,64.7,0.1,97-0.1c21.6-0.1,42.2-14.3,50-34.3c6.3-16,5.9-32.7,2.8-49.1
		c-4.8-25.5-28.8-45-56.5-43.7c-4.2,0.2-5.5,1-5.5,5.4c0.2,34,0.1,68.1,0.1,102.1c0,9.1-2.9,12-12,12c-13.1,0-26.1,0-39.2,0
		c-10.4,0-13-2.6-13-12.9c0-33.9,0-67.8,0.1-101.6c0-3.3-0.4-5-4.5-5c-38.9,0.2-77.7-0.2-116.6,0.3c-21.3,0.3-37.1,10.9-47.4,29.5
		c-8.7,15.8-8.1,33.3-5.4,50.1c4.7,29.8,27,47.3,57.1,47.3C248.4,175.3,279.3,175.2,310.3,175.2z M461.8,239.1
		c0-3.6-0.3-7.2,0.1-10.7c0.5-4.6-1.2-5.6-5.7-5.6c-79.7,0.1-159.5,0.1-239.2,0.1c-28.3,0-56.6,0.1-84.9-0.1c-3.4,0-4.7,0.8-4.5,4.4
		c0.3,7.5,0.3,14.9,0,22.4c-0.2,4.3,1.3,5.1,5.3,5.1c52.5-0.1,105.1-0.1,157.6,0c3.1,0,5-1,7.2-3.2c13.8-14.8,37.5-17.3,52.6-4
		c7.1,6.2,14,7.9,22.5,7.2c1.7-0.1,3.4-0.2,5.1,0c3.1,0.3,5.1-0.9,7.3-3.1c16.7-17.3,42.4-16.8,58.6,0.9c1.4,1.5,2.8,2.2,4.8,2.2
		c3.3-0.1,6.5-0.2,9.8,0c2.6,0.1,3.6-0.8,3.5-3.5C461.6,247.2,461.8,243.2,461.8,239.1z M111.2,191.1c0-19.3-0.1-38.5,0.1-57.8
		c0.1-4.3-0.8-5.9-5.5-5.8c-12.3,0.3-24.5,0.3-36.8,0c-4.1-0.1-5.6,0.9-5.5,5.3c0.2,21.4,0.1,42.9,0.1,64.3c0,7.3-2.5,9.8-9.8,9.8
		c-11.3,0-22.7,0.1-34,0c-3.1,0-4,0.9-4,4c0,3,0.6,4.5,4.1,4.4c5.4-0.3,10.9,0,16.3-0.1c2.7-0.1,3.8,0.6,3.9,3.6
		c0.4,12.4,0.5,12.3-11.8,12.4c-4,0-9-1.8-11.6,0.9c-2.4,2.5-0.7,7.4-0.7,11.3c-0.1,11.3,0,11.3,11.4,11.3c2.5,0,4.7,0.1,6.7-2.1
		c15.7-17.5,41.5-18.3,57.8-1.6c2.8,2.8,5.5,4.2,9.3,3.8c1.7-0.2,3.4-0.2,5.1,0c3.9,0.5,5-1,5-4.9
		C111.1,230.2,111.2,210.7,111.2,191.1z M310.3,207c17.5,0,35.1,0,52.6,0c11.2,0,11.1,0,11.3-11.4c0.1-3.8-1.2-4.5-4.7-4.5
		c-37.1,0.1-74.2,0.1-111.3,0.1c-11.4,0-11.2,0-11.3,11.4c-0.1,3.9,1.4,4.5,4.8,4.5C271.2,207,290.8,207,310.3,207z M350.1,278.8
		c-0.1-13.1-11.1-24.2-23.6-23.9c-13.5,0.3-24.2,11.1-24,24.1c0.2,13,11.1,23.7,24,23.6C339.5,302.6,350.2,291.8,350.1,278.8z
		 M63.7,302.7c13-0.1,24.1-11,23.9-23.7c-0.2-12.9-11.1-24-23.6-24.1c-13.4,0-24.1,10.9-24,24.5C40.2,292.1,50.9,302.7,63.7,302.7z
		 M437.7,279.2c0.1-13.1-10.3-24-23.2-24.3c-13.2-0.3-24.5,10.9-24.4,24.2c0.1,12.8,11.1,23.6,24.1,23.6
		C426.9,302.6,437.6,292,437.7,279.2z M47.7,159.4c0-9.6,0-19.3,0-28.9c0-1,0.5-2.3-1-2.7c-1.5-0.4-2.3,0.5-2.8,1.7
		c-0.2,0.6-0.6,1.1-0.8,1.7c-8.5,17.1-17.1,34.1-25.6,51.2c-0.8,1.5-1.4,3-1.5,4.8c-0.2,2.8,0.5,4.2,3.7,4.1
		c8.1-0.2,16.2-0.2,24.2,0c3,0.1,4-0.8,3.9-3.9C47.5,178,47.7,168.7,47.7,159.4z M366.2,111.7c4.2,0,8.4-0.1,12.5,0
		c2.4,0.1,3.7-0.5,3.7-3.3c-0.2-5.9-0.1-11.8,0-17.7c0-2.4-0.8-3.3-3.2-3.2c-8.5,0.1-17,0.1-25.6,0c-2.6,0-3.6,1-3.6,3.5
		c0.1,5.6,0.1,11.2,0,16.7c-0.1,3.1,1.2,4.1,4.1,4C358.1,111.6,362.2,111.7,366.2,111.7z M366.2,71.7c4.2,0,8.4-0.1,12.5,0.1
		c2.9,0.1,3.8-1,3.7-3.8c-0.2-5.3-0.2-10.5,0-15.8c0.1-2.9-0.7-4.2-3.9-4.1c-8.2,0.2-16.4,0.2-24.6,0c-3.1-0.1-4,1.1-3.9,4.1
		c0.2,5.3,0.2,10.5,0,15.8c-0.1,2.8,0.7,3.9,3.7,3.8C357.8,71.6,362,71.7,366.2,71.7z M366.1,151.2c4.3,0,8.7-0.1,13,0
		c2.4,0.1,3.3-0.9,3.2-3.3c-0.1-5.7-0.1-11.5,0-17.2c0-2.1-0.6-3.1-2.9-3.1c-8.8,0.1-17.7,0.1-26.5,0c-2.2,0-3,0.8-3,3
		c0.1,5.7,0.1,11.5,0,17.2c-0.1,2.7,1.1,3.5,3.6,3.4C357.8,151.1,361.9,151.2,366.1,151.2z M246.3,32.3c1.5,0,3.1,0,4.6,0
		c14.4-0.4,11.7,2.9,12-12.7c0.1-2.9-1.1-3.8-3.9-3.7c-5.6,0.1-11.1,0-16.7,0c-12.1,0-12.1,0-11.8,12c0,0.3,0,0.6,0,0.9
		c-0.2,2.6,1.1,3.6,3.6,3.5C238.2,32.2,242.3,32.3,246.3,32.3z"/>
	<path class="st1" d="M310.3,175.2c-30.9,0-61.9,0-92.8,0c-30.2,0-52.4-17.5-57.1-47.3c-2.6-16.7-3.3-34.2,5.4-50.1
		c10.2-18.6,26-29.2,47.4-29.5c38.8-0.5,77.7-0.1,116.6-0.3c4.1,0,4.5,1.7,4.5,5c-0.1,33.9-0.1,67.8-0.1,101.6
		c0,10.3,2.6,12.9,13,12.9c13.1,0,26.1,0,39.2,0c9.1,0,12-2.9,12-12c0-34,0.1-68.1-0.1-102.1c0-4.4,1.3-5.2,5.5-5.4
		c27.8-1.2,51.7,18.2,56.5,43.7c3.1,16.4,3.5,33-2.8,49.1c-7.9,20-28.5,34.2-50,34.3C374.9,175.3,342.6,175.2,310.3,175.2
		C310.3,175.2,310.3,175.2,310.3,175.2z"/>
	<path class="st1" d="M461.8,239.1c0,4-0.1,8.1,0,12.1c0.1,2.7-0.9,3.6-3.5,3.5c-3.3-0.2-6.5-0.1-9.8,0c-2,0.1-3.5-0.6-4.8-2.2
		c-16.1-17.8-41.8-18.2-58.6-0.9c-2.1,2.2-4.2,3.4-7.3,3.1c-1.7-0.2-3.4-0.1-5.1,0c-8.5,0.7-15.4-1-22.5-7.2
		c-15.1-13.3-38.8-10.8-52.6,4c-2.1,2.2-4.1,3.2-7.2,3.2c-52.5-0.1-105.1-0.1-157.6,0c-4,0-5.5-0.9-5.3-5.1c0.4-7.4,0.3-14.9,0-22.4
		c-0.1-3.6,1.1-4.4,4.5-4.4c28.3,0.1,56.6,0.1,84.9,0.1c79.7,0,159.5,0,239.2-0.1c4.4,0,6.2,1,5.7,5.6
		C461.4,232,461.8,235.6,461.8,239.1z"/>
	<path class="st1" d="M111.2,191.1c0,19.6-0.1,39.2,0.1,58.7c0,3.9-1.1,5.4-5,4.9c-1.7-0.2-3.4-0.2-5.1,0c-3.9,0.5-6.6-0.9-9.3-3.8
		c-16.3-16.6-42.1-15.9-57.8,1.6c-2,2.3-4.3,2.1-6.7,2.1c-11.4,0-11.5,0-11.4-11.3c0-3.8-1.7-8.8,0.7-11.3c2.6-2.7,7.6-0.9,11.6-0.9
		c12.3-0.1,12.2,0,11.8-12.4c-0.1-3-1.3-3.6-3.9-3.6c-5.4,0.1-10.9-0.2-16.3,0.1c-3.5,0.2-4-1.4-4.1-4.4c0-3.1,0.9-4,4-4
		c11.3,0.2,22.7,0.1,34,0c7.2,0,9.8-2.5,9.8-9.8c0-21.4,0.1-42.9-0.1-64.3c-0.1-4.5,1.4-5.4,5.5-5.3c12.3,0.2,24.6,0.3,36.8,0
		c4.7-0.1,5.6,1.4,5.5,5.8C111.1,152.6,111.2,171.8,111.2,191.1z"/>
	<path class="st2" d="M47.7,159.4c0,9.3-0.1,18.6,0.1,28c0.1,3.1-0.9,4-3.9,3.9c-8.1-0.2-16.2-0.2-24.2,0c-3.3,0.1-3.9-1.2-3.7-4.1
		c0.1-1.8,0.7-3.3,1.5-4.8c8.5-17.1,17.1-34.1,25.6-51.2c0.3-0.6,0.6-1.1,0.8-1.7c0.5-1.3,1.4-2.1,2.8-1.7c1.5,0.4,1,1.7,1,2.7
		C47.7,140.1,47.7,149.7,47.7,159.4z"/>
	<path class="st1" d="M366.2,111.7c-4,0-8.1-0.1-12.1,0c-3,0.1-4.2-0.9-4.1-4c0.2-5.6,0.1-11.2,0-16.7c0-2.6,1-3.6,3.6-3.5
		c8.5,0.1,17,0.1,25.6,0c2.4,0,3.3,0.8,3.2,3.2c-0.1,5.9-0.1,11.8,0,17.7c0.1,2.8-1.2,3.4-3.7,3.3
		C374.6,111.7,370.4,111.7,366.2,111.7z"/>
	<path class="st1" d="M366.2,71.7c-4.2,0-8.4-0.2-12.5,0.1c-2.9,0.1-3.7-1-3.7-3.8c0.2-5.3,0.2-10.5,0-15.8
		c-0.1-2.9,0.8-4.1,3.9-4.1c8.2,0.2,16.4,0.2,24.6,0c3.2-0.1,4,1.2,3.9,4.1c-0.2,5.3-0.2,10.5,0,15.8c0.1,2.8-0.8,3.9-3.7,3.8
		C374.5,71.6,370.3,71.7,366.2,71.7z"/>
	<path class="st1" d="M366.1,151.2c-4.2,0-8.4-0.1-12.5,0c-2.5,0.1-3.7-0.7-3.6-3.4c0.1-5.7,0.1-11.5,0-17.2c0-2.2,0.8-3,3-3
		c8.8,0.1,17.7,0.1,26.5,0c2.3,0,2.9,1,2.9,3.1c-0.1,5.7-0.1,11.5,0,17.2c0,2.4-0.8,3.4-3.2,3.3
		C374.8,151.1,370.5,151.2,366.1,151.2z"/>
	<path class="st1" d="M246.3,32.3c-4,0-8.1-0.1-12.1,0c-2.5,0.1-3.8-0.9-3.6-3.5c0-0.3,0-0.6,0-0.9c-0.3-12-0.3-12,11.8-12
		c5.6,0,11.1,0.1,16.7,0c2.7-0.1,3.9,0.9,3.9,3.7c-0.4,15.7,2.4,12.3-12,12.7C249.4,32.4,247.8,32.3,246.3,32.3z"/>
	<path class="st3" d="M334.1,278.7c0,4.3-3.1,7.6-7.4,7.7c-4.5,0.1-8.1-3.2-8.2-7.6c-0.1-4.5,3.4-7.7,8-7.7
		C331,271.2,334.1,274.3,334.1,278.7z"/>
	<path class="st3" d="M71.7,278.6c0.1,4.1-3.3,7.7-7.6,7.9c-4.6,0.2-8.1-3-8.2-7.6c-0.1-4.4,3.1-7.7,7.4-7.9
		C67.8,270.9,71.5,274.2,71.7,278.6z"/>
	<path class="st3" d="M421.7,278.6c0.1,4.4-3,7.7-7.4,7.9c-4.5,0.2-8.2-3.1-8.4-7.5c-0.1-4.3,3.5-7.9,8-7.9
		C418.4,271.1,421.6,274.3,421.7,278.6z"/>
</g>
</svg>
