<?xml version="1.0" encoding="utf-8"?>
<!-- Generator: Adobe Illustrator 27.6.1, SVG Export Plug-In . SVG Version: 6.00 Build 0)  -->
<svg version="1.1" id="Layer_1" xmlns="http://www.w3.org/2000/svg" xmlns:xlink="http://www.w3.org/1999/xlink" x="0px" y="0px"
	 viewBox="0 0 131.8 294.2" style="enable-background:new 0 0 131.8 294.2;" xml:space="preserve">
<style type="text/css">
	.st0{fill:#998E94;}
	.st1{fill:#FFFFFF;}
</style>
<g>
	<g>
		<g>
			<path class="st0" d="M64.6,55.6c-14.8,0-26.5-11.6-26.5-26.5S49.8,2.6,64.6,2.6s26.5,11.6,26.5,26.5S79.5,55.6,64.6,55.6z"/>
			<path class="st1" d="M64.6,5.3c13.2,0,23.8,10.6,23.8,23.8S77.9,52.9,64.6,52.9S40.8,42.3,40.8,29.1S51.4,5.3,64.6,5.3 M64.6,0
				C48.8,0,35.6,13.2,35.6,29.1s13.2,29.1,29.1,29.1S93.7,45,93.7,29.1S80.5,0,64.6,0L64.6,0z"/>
		</g>
		<g>
			<path class="st0" d="M82.6,291.5c-7.9,0-16.4-5.3-16.9-15.9c-0.5-10.1-0.5-20.1-1.1-30.2c0,10.1-0.5,20.1-1.1,30.2
				c-0.5,10.1-9,15.9-16.9,15.9c-4.8,0-9-1.6-11.6-4.8c-2.6-2.6-4.2-6.9-3.7-11.1c1.6-41.3,1.6-84.1,1.6-118.5v-1.1v-0.5
				c0-0.5,0-1.1,0-1.1v-32.3c-1.6,9.5-1.6,19.6-0.5,27.5c0.5,4.2-0.5,7.4-3.2,10.1s-6.3,4.2-10.6,4.2c-6.9,0-14.8-4.8-15.9-13.8
				c-3.2-32.8,7.4-83.1,51.3-88.4c3.2-0.5,6.3-1.1,10.1-1.1c3.2,0,6.3,0.5,9,1.1c14.3,1.1,26.5,7.4,36,18.5
				c16.4,19.6,20.1,49.2,17.5,70.4c-1.1,9-8.5,13.8-15.9,13.8l0,0c-4.2,0-7.9-1.6-10.6-4.2c-2.1-2.6-3.2-5.8-3.2-10.1
				c1.1-10.1,1.1-23.3-2.1-34.4c0,5.3,0,11.1,0,16.4c0,6.9,0,14.3,0,21.2c0.5,1.1,0.5,2.6,0.5,3.7c0,36.5,0,77.8,1.6,118.5
				c0,4.2-1.1,8.5-3.7,11.1C91.6,289.4,87.4,291.5,82.6,291.5z"/>
			<path class="st1" d="M64.1,63.5c3.2,0,5.8,0.5,8.5,1.1c41.8,3.2,55,50.3,51.3,85.7c-0.5,7.4-7.4,11.6-13.2,11.6
				c-5.8,0-11.6-3.7-10.6-11.6c1.6-13.8,0.5-34.4-7.4-48.1c0,16.9,0.5,34.4,0.5,51.3c0,1.1,0.5,2.1,0.5,3.2c0,39.7,0,79.4,1.6,118.5
				c0.5,9-6.3,13.2-13.2,13.2s-13.8-4.2-14.3-13.2c-0.5-30.7-1.1-61.4-1.1-92.6c-0.5,0-1.1,0-2.1,0c-0.5,0-1.6,0-2.1,0
				c0,31.2-0.5,61.9-1.6,93.1c-0.5,9-7.4,13.2-14.3,13.2s-13.2-4.2-13.2-13.2C35,236,35,196.8,35,157.1c0-0.5,0-0.5,0-0.5
				c0-0.5,0-1.1,0-1.6c0-16.4,0-33.3,0-49.7c-6.9,13.8-7.4,32.8-5.8,45.5c1.1,7.4-4.8,11.6-10.6,11.6s-12.2-3.7-13.2-11.6
				c-3.2-35.4,9.5-81.5,49.2-86.2C57.8,64,60.9,63.5,64.1,63.5 M64.1,58.2c-3.7,0-6.9,0.5-10.6,1.1C13.3,64.5-3.6,109,0.6,150.8
				c1.1,10.6,10.1,16.4,18.5,16.4c4.2,0,8.5-1.6,11.6-4.2c0,40.2,0,76.2-1.6,112.7c0,5.3,1.6,9.5,4.8,13.2c3.2,3.7,8.5,5.3,13.8,5.3
				c7.4,0,14.8-3.7,18-11.1c3.2,7.4,10.6,11.1,18,11.1c5.3,0,10.1-2.1,13.8-5.3c3.2-3.2,4.8-7.9,4.8-13.2
				c-1.6-36.5-1.6-71.4-1.6-113.2c3.2,3.2,7.4,4.8,12.2,4.8c8.5,0,17.5-5.3,18.5-16.4c2.1-21.7-1.6-51.8-18.5-72.5
				c-9.5-11.6-22.2-18-37.6-19.6C70.5,58.7,67.3,58.2,64.1,58.2L64.1,58.2z"/>
		</g>
	</g>
</g>
</svg>
