<?xml version="1.0" encoding="utf-8"?>
<!-- Generator: Adobe Illustrator 27.0.0, SVG Export Plug-In . SVG Version: 6.00 Build 0)  -->
<svg version="1.1" id="Layer_1" xmlns="http://www.w3.org/2000/svg" xmlns:xlink="http://www.w3.org/1999/xlink" x="0px" y="0px"
	 viewBox="0 0 318.4 318.4" style="enable-background:new 0 0 318.4 318.4;" xml:space="preserve">
<style type="text/css">
	.st0{fill:#998E94;}
</style>
<g>
	
		<ellipse transform="matrix(0.7071 -0.7071 0.7071 0.7071 -65.9521 159.2225)" class="st0" cx="159.2" cy="159.2" rx="138.2" ry="138.2"/>
	<path d="M159.2,42c31.3,0,60.7,12.2,82.9,34.3c22.1,22.1,34.3,51.6,34.3,82.9s-12.2,60.7-34.3,82.9c-22.1,22.1-51.6,34.3-82.9,34.3
		s-60.7-12.2-82.9-34.3C54.2,220,42,190.5,42,159.2s12.2-60.7,34.3-82.9C98.5,54.2,127.9,42,159.2,42 M159.2,0
		C71.3,0,0,71.3,0,159.2s71.3,159.2,159.2,159.2s159.2-71.3,159.2-159.2S247.2,0,159.2,0L159.2,0z"/>
</g>
</svg>
