<?xml version="1.0" encoding="utf-8"?>
<!-- Generator: Adobe Illustrator 27.6.1, SVG Export Plug-In . SVG Version: 6.00 Build 0)  -->
<svg version="1.1" id="Layer_1" xmlns="http://www.w3.org/2000/svg" xmlns:xlink="http://www.w3.org/1999/xlink" x="0px" y="0px"
	 viewBox="0 0 116.1 259" style="enable-background:new 0 0 116.1 259;" xml:space="preserve">
<style type="text/css">
	.st0{fill:#FF0000;}
	.st1{fill:#FFFFFF;}
</style>
<g>
	<g>
		<g>
			<path class="st0" d="M56.9,48.9c-13,0-23.3-10.2-23.3-23.3S43.9,2.3,56.9,2.3s23.3,10.2,23.3,23.3S70,48.9,56.9,48.9z"/>
			<path class="st1" d="M56.9,4.7c11.6,0,21,9.3,21,21s-9.3,21-21,21s-21-9.3-21-21S45.3,4.7,56.9,4.7 M56.9,0
				c-14,0-25.6,11.6-25.6,25.6s11.6,25.6,25.6,25.6s25.6-11.6,25.6-25.6S70.9,0,56.9,0L56.9,0z"/>
		</g>
		<g>
			<path class="st0" d="M72.8,256.7c-7,0-14.4-4.7-14.9-14c-0.5-8.9-0.5-17.7-0.9-26.6c0,8.9-0.5,17.7-0.9,26.6
				c-0.5,8.9-7.9,14-14.9,14c-4.2,0-7.9-1.4-10.2-4.2c-2.3-2.3-3.7-6.1-3.3-9.8C29,206.4,29,168.6,29,138.4v-0.9V137
				c0-0.5,0-0.9,0-0.9v-28.4c-1.4,8.4-1.4,17.2-0.5,24.2c0.5,3.7-0.5,6.5-2.8,8.9s-5.6,3.7-9.3,3.7c-6.1,0-13-4.2-14-12.1
				c-2.8-28.9,6.5-73.1,45.2-77.8c2.8-0.5,5.6-0.9,8.9-0.9c2.8,0,5.6,0.5,7.9,0.9C77,55.4,87.7,61,96.1,70.8
				c14.4,17.2,17.7,43.3,15.4,62c-0.9,7.9-7.5,12.1-14,12.1l0,0c-3.7,0-7-1.4-9.3-3.7c-1.9-2.3-2.8-5.1-2.8-8.9
				c0.9-8.9,0.9-20.5-1.9-30.3c0,4.7,0,9.8,0,14.4c0,6.1,0,12.6,0,18.6c0.5,0.9,0.5,2.3,0.5,3.3c0,32.1,0,68.5,1.4,104.3
				c0,3.7-0.9,7.5-3.3,9.8C80.7,254.8,77,256.7,72.8,256.7z"/>
			<path class="st1" d="M56.5,55.9c2.8,0,5.1,0.5,7.5,0.9c36.8,2.8,48.4,44.3,45.2,75.5c-0.5,6.5-6.5,10.2-11.6,10.2
				c-5.1,0-10.2-3.3-9.3-10.2c1.4-12.1,0.5-30.3-6.5-42.4c0,14.9,0.5,30.3,0.5,45.2c0,0.9,0.5,1.9,0.5,2.8c0,34.9,0,69.9,1.4,104.3
				c0.5,7.9-5.6,11.6-11.6,11.6c-6.1,0-12.1-3.7-12.6-11.6c-0.5-27-0.9-54-0.9-81.5c-0.5,0-0.9,0-1.9,0c-0.5,0-1.4,0-1.9,0
				c0,27.5-0.5,54.5-1.4,82c-0.5,7.9-6.5,11.6-12.6,11.6s-11.6-3.7-11.6-11.6c1.4-34.9,1.4-69.4,1.4-104.3c0-0.5,0-0.5,0-0.5
				c0-0.5,0-0.9,0-1.4c0-14.4,0-29.3,0-43.8c-6.1,12.1-6.5,28.9-5.1,40.1c0.9,6.5-4.2,10.2-9.3,10.2s-10.7-3.3-11.6-10.2
				C2,101.6,13.1,61,48.1,56.8C50.9,56.4,53.7,55.9,56.5,55.9 M56.5,51.2c-3.3,0-6.1,0.5-9.3,0.9C11.7,56.8-3.2,96,0.6,132.8
				c0.9,9.3,8.9,14.4,16.3,14.4c3.7,0,7.5-1.4,10.2-3.7c0,35.4,0,67.1-1.4,99.2c0,4.7,1.4,8.4,4.2,11.6c2.8,3.3,7.5,4.7,12.1,4.7
				c6.5,0,13-3.3,15.8-9.8c2.8,6.5,9.3,9.8,15.8,9.8c4.7,0,8.9-1.9,12.1-4.7c2.8-2.8,4.2-7,4.2-11.6c-1.4-32.1-1.4-62.9-1.4-99.7
				c2.8,2.8,6.5,4.2,10.7,4.2c7.5,0,15.4-4.7,16.3-14.4c1.9-19.1-1.4-45.7-16.3-63.8c-8.4-10.2-19.6-15.8-33.1-17.2
				C62,51.7,59.3,51.2,56.5,51.2L56.5,51.2z"/>
		</g>
	</g>
</g>
</svg>
