<?xml version="1.0" encoding="utf-8"?>
<!-- Generator: Adobe Illustrator 26.0.0, SVG Export Plug-In . SVG Version: 6.00 Build 0)  -->
<svg version="1.1" id="Layer_1" xmlns="http://www.w3.org/2000/svg" xmlns:xlink="http://www.w3.org/1999/xlink" x="0px" y="0px"
	 viewBox="0 0 1487.9 554.3" style="enable-background:new 0 0 1487.9 554.3;" xml:space="preserve">
<style type="text/css">
	.st0{fill:url(#Path_30112_00000082343092512560812080000007359259020109443236_);}
	.st1{fill:url(#Path_30113_00000026886143518182641310000004915414306393630617_);}
	.st2{fill:url(#Path_30114_00000036953425362376688190000014871426232129050542_);}
	.st3{fill:url(#Path_30115_00000139277077969496640390000001615072503184011949_);}
	.st4{fill:#0071BC;}
</style>
<g>
	<g>
		
			<linearGradient id="Path_30112_00000154384192354879318110000003147725384900382850_" gradientUnits="userSpaceOnUse" x1="-211.9364" y1="816.3553" x2="-211.9992" y2="812.3706" gradientTransform="matrix(60.033 0 0 -88.0902 12914.7617 72029.9297)">
			<stop  offset="2.700000e-02" style="stop-color:#1B1464"/>
			<stop  offset="0.145" style="stop-color:#1B1867"/>
			<stop  offset="0.275" style="stop-color:#1C2572"/>
			<stop  offset="0.411" style="stop-color:#1E3B85"/>
			<stop  offset="0.55" style="stop-color:#215A9E"/>
			<stop  offset="0.691" style="stop-color:#2581BF"/>
			<stop  offset="0.816" style="stop-color:#29ABE2"/>
		</linearGradient>
		<path id="Path_30112" style="fill:url(#Path_30112_00000154384192354879318110000003147725384900382850_);" d="M326.5,242.8
			c-30.8-34.1-57.8-71.4-80.6-111.3c0-0.1-0.1-0.1-0.1-0.2c-20-35.2-36.7-72.2-49.8-110.5l0,0c-1.8-5.1-3.5-10.2-5.1-15.4l0,0
			c-0.4-1.3-0.8-2.5-1.2-3.8c0.3,1.1,0.4,2.2,0.4,3.4l0,0c0,0.9-0.1,1.8-0.3,2.7c-0.5,3.1-1.3,6.1-2.3,9l0,0
			c-2.4,7.3-5.8,14.9-7.2,19c-17.7,52.3-46.7,101.1-78.8,145.7c-9.1,12.6-19.2,24.8-29.3,36.9l0,0c-26,31-52.4,62.1-64.3,101.2
			c-3.3,10.9-5.5,22-6.5,33.3c0,0,0,0.1,0,0.1c-2.7,28.9,1.6,57.9,12.4,84.8c4.7,11.4,10.8,22.2,18,32.3l0,0
			C57,505.6,97.5,536.2,137.1,547c136.4,37.3,209.2-80.5,209.2-80.5C397.5,399.4,381.1,303.4,326.5,242.8z M127.3,422.7
			c-17.6-19-24.2-45.7-17.7-70.7c0.2-0.6,0.4-1.2,0.6-1.8c7.8-24.4,24.8-44.4,37.3-66.4c13.3-23.6,26.6-47.1,40-70.7
			c0.2-0.3,2.2-3.2,2-3.5c14.9,25.1,29.5,50.3,44.4,75.4c11.8,20,28.2,39,34,62.2c0.3,1,0.5,2,0.7,3.1c4.5,25.9-2.4,52.5-19.1,72.8
			C218.9,460.9,158.5,457.8,127.3,422.7L127.3,422.7z"/>
		<g id="Group_2629">
			
				<linearGradient id="Path_30113_00000033357721728377795680000004193329112262365340_" gradientUnits="userSpaceOnUse" x1="-212.6418" y1="816.1104" x2="-212.6418" y2="812.2512" gradientTransform="matrix(30.1976 0 0 -73.841 6702.3228 60374.1055)">
				<stop  offset="0" style="stop-color:#2E3192"/>
				<stop  offset="0.145" style="stop-color:#2D3896"/>
				<stop  offset="0.358" style="stop-color:#2C4CA3"/>
				<stop  offset="0.614" style="stop-color:#2B6CB9"/>
				<stop  offset="0.9" style="stop-color:#2999D6"/>
				<stop  offset="1" style="stop-color:#29ABE2"/>
			</linearGradient>
			<path id="Path_30113" style="fill:url(#Path_30113_00000033357721728377795680000004193329112262365340_);" d="M187.4,47.2
				c0,0,3.4,111.8,98.3,223.6c0,0,82.2,94.9,55.1,194c0.9-3.4,6.8-8.3,8.8-11.2c7-10.1,12.7-21,17-32.5
				c16.7-44.2,9.5-93.6-12.4-134.6c-17.1-32.2-43.1-58-64.7-86.9c-37.1-50.9-66.8-106.8-88.1-166.1c-3.9-10.4-10.3-21.1-12.2-32.1
				C189.2,1.4,184.1,37,187.4,47.2z"/>
			
				<linearGradient id="Path_30114_00000052816775672583330610000003131601137287624071_" gradientUnits="userSpaceOnUse" x1="-217.7318" y1="815.9555" x2="-217.7318" y2="812.1277" gradientTransform="matrix(30.4467 0 0 -76.0394 6724.7344 62172.168)">
				<stop  offset="0" style="stop-color:#2E3192"/>
				<stop  offset="0.145" style="stop-color:#2D3896"/>
				<stop  offset="0.358" style="stop-color:#2C4CA3"/>
				<stop  offset="0.614" style="stop-color:#2B6CB9"/>
				<stop  offset="0.9" style="stop-color:#2999D6"/>
				<stop  offset="1" style="stop-color:#29ABE2"/>
			</linearGradient>
			<path id="Path_30114" style="fill:url(#Path_30114_00000052816775672583330610000003131601137287624071_);" d="M185.7,54
				c0,0-9.9,114.2-99.5,228c0,0-77.7,96.6-49.1,195.2c-1-3.4-6.8-8.1-8.8-11c-7-10-12.8-20.7-17.3-32.1
				c-16.7-44.7-14.3-94.3,6.5-137.2c15.9-32.5,40.6-58.1,60.9-87.6c19.1-27.6,37.9-55.4,54.7-84.5c12.6-20.3,22.9-41.8,31-64.3
				c33.3-103,21.5-39.8,27-55.8c-2.1,8.4-3.1,17.1-2.9,25.8C188.4,38.5,187.6,46.3,185.7,54z"/>
		</g>
		
			<radialGradient id="Path_30115_00000096767273424385247930000014626552824755293612_" cx="-214.5503" cy="805.3752" r="2.9959" gradientTransform="matrix(33.4204 0 0 -33.4102 7360.4751 27356.2559)" gradientUnits="userSpaceOnUse">
			<stop  offset="0" style="stop-color:#29ABE2"/>
			<stop  offset="0.145" style="stop-color:#29A3DD"/>
			<stop  offset="0.358" style="stop-color:#2A8FD0"/>
			<stop  offset="0.614" style="stop-color:#2B6FBA"/>
			<stop  offset="0.9" style="stop-color:#2D429D"/>
			<stop  offset="1" style="stop-color:#2E3192"/>
		</radialGradient>
		<path id="Path_30115" style="fill:url(#Path_30115_00000096767273424385247930000014626552824755293612_);" d="M260.8,514.8
			c-62.7,71.2-120.3,22-120.3,22c-78.8-57.6-31.4-187.8-31.4-187.8c0.3,0.4,0.6,0.7,0.9,1.1c-0.2,0.6-0.4,1.2-0.6,1.8
			c-6.5,25.1,0.2,51.7,17.7,70.7c31.3,35.1,91.6,38.2,122.1,0.4c16.6-20.3,23.6-46.9,19.1-72.8c-0.2-1-0.5-2.1-0.7-3.1
			c1.6-2.2,2.4-3.5,2.4-3.5C309.1,451.3,260.8,514.8,260.8,514.8z"/>
	</g>
	<g id="Group_2633" transform="translate(0 0)">
		<g id="Group_2631" transform="translate(42.189 1.66)">
			<path id="Path_30116" class="st4" d="M985.1,287.3c-1.9,0-3.8-0.7-5.1-2.2c-1.4-1.4-2.1-3.3-2-5.3c0-1.9,0.7-3.6,2-4.9
				c1.4-1.4,3.2-2.1,5.1-2h52.1c1.9,0,3.8,0.7,5.1,2.2c1.4,1.4,2.1,3.3,2,5.3c0.1,1.9-0.7,3.7-2,5.1c-1.4,1.3-3.2,2-5.1,1.9
				L985.1,287.3z"/>
			<path id="Path_30117" class="st4" d="M1088.5,186.8c1.9,0,3.8,0.8,5.1,2.2c1.5,1.4,2.3,3.3,2.3,5.3v153.9c-0.1,2-1.1,3.9-2.6,5.3
				c-1.4,1.4-3.2,2.2-5.1,2.2c-2.1,0.1-4.1-0.7-5.5-2.2c-1.3-1.5-2-3.4-1.9-5.3V194.2c0-2,0.7-3.9,2.2-5.3
				C1084.4,187.4,1086.5,186.7,1088.5,186.8z M1087.3,262.3h114.6l-0.2,14.2h-115.3L1087.3,262.3z M1201.7,186.8
				c2-0.1,4,0.7,5.4,2.2c1.4,1.4,2.1,3.3,2,5.3v153.9c-0.1,2-0.9,3.9-2.3,5.3c-1.4,1.5-3.4,2.3-5.4,2.2c-4.1,0-7.4-3.3-7.5-7.3
				c0,0,0-0.1,0-0.1V194.2c0-2,0.8-4,2.3-5.3C1197.7,187.5,1199.6,186.7,1201.7,186.8z"/>
			<path id="Path_30118" class="st4" d="M1273,381.1c1.9,0,3.5,1.5,3.5,3.5l0,0c0,0.9-0.3,1.9-1,2.5c-0.7,0.6-1.5,1-2.4,1h-44.7
				c-1,0-1.9-0.3-2.7-0.9c-0.8-0.6-1.3-1.6-1.2-2.7c0-0.9,0.4-1.8,1.1-2.5l27.4-30.4c3.8-4,7.2-8.4,9.9-13.2c2-3.3,3.1-7,3.3-10.8
				c0.2-4.7-1.5-9.2-4.8-12.6c-3.5-3.2-8.1-4.9-12.9-4.7c-2.5,0-5,0.5-7.3,1.5c-2.4,1-4.5,2.3-6.4,4.1c-1.8,1.6-3.3,3.5-4.3,5.7
				c-0.3,0.7-0.8,1.3-1.5,1.7c-0.5,0.3-1.1,0.4-1.7,0.4c-0.9,0-1.8-0.3-2.5-0.9c-0.7-0.5-1.1-1.3-1.1-2.2c0-0.6,0.1-1.2,0.4-1.7
				c0.4-0.7,0.8-1.3,1.3-1.9c1.6-2.6,3.6-4.9,6-6.8c2.6-2.1,5.4-3.7,8.5-4.9c2.9-1.2,6.1-1.8,9.2-1.9c4.6-0.1,9.1,0.9,13.2,2.9
				c3.6,1.9,6.6,4.7,8.6,8.2c2.1,3.8,3.1,8.2,3,12.6c-0.2,4.8-1.5,9.4-3.9,13.6c-3.1,5.7-7,11-11.5,15.7l-23.2,26.1l-1.3-1.5H1273z"
				/>
			<path id="Path_30119" class="st4" d="M1445.7,271.2c0.1,11.9-1.9,23.7-5.9,34.9c-3.7,10.2-9.4,19.5-16.7,27.5
				c-7.2,7.8-16,13.9-25.7,18.1c-20.8,8.5-44.2,8.5-65,0c-9.7-4.2-18.4-10.3-25.6-18.1c-7.4-8-13.1-17.3-16.9-27.5
				c-8-22.5-8-47.2,0-69.7c3.8-10.2,9.5-19.5,16.9-27.5c7.2-7.8,15.9-13.9,25.6-18.1c20.8-8.5,44.2-8.5,65,0
				c9.8,4.2,18.5,10.3,25.7,18.1c7.3,8,13,17.3,16.7,27.5C1443.8,247.5,1445.8,259.3,1445.7,271.2z M1430.2,271.2
				c0.3-13.1-2.6-26-8.4-37.7c-5.2-10.4-13.2-19.2-23-25.5c-10.2-6.2-21.9-9.4-33.9-9.2c-24.1-0.6-46.4,12.9-57.1,34.6
				c-11.1,23.9-11.1,51.6,0,75.5c16.9,31.8,56.4,43.9,88.2,27c0.9-0.5,1.8-1,2.7-1.5c9.8-6.2,17.8-15,23-25.5
				C1427.6,297.2,1430.5,284.3,1430.2,271.2z"/>
		</g>
		<g id="Group_2632">
			<path id="Path_30120" class="st4" d="M860,210.2c1.9,0,3.8,0.8,5.1,2.2c1.4,1.4,2.1,3.3,2,5.3v108.5c-0.1,4-3.3,7.1-7.2,7.2
				c-2,0.1-4-0.7-5.3-2.2c-1.3-1.4-2-3.2-1.9-5.1v-28.7l4.1-1.7c-0.1,4.8-1.4,9.5-3.7,13.6c-2.6,4.9-6.1,9.3-10.3,13
				c-4.5,4.1-9.7,7.3-15.3,9.6c-6,2.5-12.4,3.8-18.9,3.7c-10.4,0.2-20.6-2.8-29.3-8.4c-8.7-5.8-15.7-13.8-20.3-23.2
				c-5-10.3-7.5-21.6-7.4-33c-0.2-11.5,2.3-22.9,7.5-33.2c4.6-9.2,11.6-17,20.3-22.5c14.4-9,32.2-10.7,48.1-4.6
				c5.8,2.3,11.2,5.6,15.8,9.9c4.4,4.1,8,8.9,10.6,14.4c2.5,5.2,3.8,10.9,3.9,16.7l-5.1-3.6v-30.6c-0.1-2,0.6-3.8,1.9-5.3
				C855.9,210.9,857.9,210.1,860,210.2z M809.8,322.4c8.1,0.1,16-2.2,22.7-6.6c6.7-4.6,12.1-10.9,15.6-18.3
				c3.9-8.2,5.8-17.1,5.7-26.2c0.1-8.8-1.8-17.5-5.7-25.5c-3.5-7.3-8.9-13.5-15.6-18.1c-6.7-4.5-14.6-6.8-22.7-6.6
				c-8-0.1-15.8,2.1-22.6,6.4c-6.8,4.4-12.2,10.5-15.7,17.7c-3.9,8.1-5.8,17-5.7,26.1c-0.1,9,1.8,18,5.7,26.2
				c3.4,7.4,8.8,13.7,15.6,18.3C793.8,320.3,801.7,322.6,809.8,322.4L809.8,322.4z"/>
			<path id="Path_30121" class="st4" d="M922.7,344.6c0.2,7-1.7,13.8-5.4,19.7c-3.4,5.2-8,9.4-13.4,12.4c-4.9,2.8-10.3,4.3-15.9,4.3
				c-3.5,0.2-6.6-2.6-6.7-6.1c0-0.1,0-0.3,0-0.4v-1c-0.1-1.7,0.6-3.4,1.9-4.6c1.2-1.1,2.7-1.8,4.3-2.2c3.6-0.8,7.1-2.2,10.3-4.1
				c3.2-2,5.8-4.7,7.6-8c2-3.8,3-8,2.9-12.3V218.2c0-2,0.7-3.9,2-5.3c2.8-2.9,7.4-2.9,10.3-0.1c0,0,0,0,0.1,0.1
				c1.4,1.4,2.1,3.3,2,5.3L922.7,344.6z M915.4,191.7c-2.7,0.2-5.4-0.6-7.6-2.3c-1.8-1.7-2.7-4.2-2.6-6.6v-2.4
				c-0.2-2.5,0.9-5,2.8-6.6c2.2-1.6,4.9-2.4,7.6-2.3c2.6-0.2,5.1,0.7,7.1,2.3c1.8,1.7,2.7,4.2,2.6,6.6v2.4c0.2,2.5-0.8,4.9-2.6,6.6
				C920.7,191,918.1,191.8,915.4,191.7L915.4,191.7z"/>
			<path id="Path_30122" class="st4" d="M976.9,191.9c-2.7,0.2-5.4-0.6-7.6-2.3c-1.8-1.7-2.7-4.2-2.6-6.6v-2.4
				c-0.2-2.5,0.9-5,2.8-6.6c2.2-1.6,4.9-2.4,7.6-2.3c2.6-0.2,5.1,0.7,7.1,2.3c1.8,1.7,2.7,4.2,2.6,6.6v2.4c0.2,2.5-0.8,4.9-2.6,6.6
				C982.2,191.3,979.6,192.1,976.9,191.9z M984.2,326.3c-0.1,4-3.3,7.1-7.2,7.2c-2,0.1-4-0.7-5.3-2.2c-1.3-1.4-2-3.2-1.9-5.1v-111
				c0-1.9,0.7-3.7,2.1-5.1c2.8-2.9,7.4-2.9,10.3-0.1c0,0,0,0,0.1,0.1c1.3,1.4,2.1,3.2,2,5.1L984.2,326.3z"/>
			<path id="Path_30123" class="st4" d="M491.6,228.6c-0.1-8.8,2.2-17.5,6.8-25.1c4.4-7.3,10.5-13.4,17.9-17.7
				c15-8.9,33.5-8.9,48.5,0c7.3,4.3,13.4,10.4,17.7,17.7c4.5,7.6,6.8,16.3,6.6,25.1v99.9h15.7v-99.9c-0.1-8.8,2.2-17.5,6.8-25.1
				c4.4-7.3,10.5-13.4,17.9-17.7c15-8.9,33.5-8.9,48.5,0c7.3,4.3,13.4,10.4,17.7,17.7c4.5,7.6,6.8,16.3,6.6,25.1v99.9h15v-99.9
				c0.2-11.3-2.8-22.5-8.4-32.3c-5.5-9.5-13.3-17.4-22.8-23c-9.7-5.8-20.9-8.7-32.2-8.6c-11.3-0.2-22.4,2.8-32.1,8.6
				c-9.4,5.6-17.2,13.5-22.7,23c-0.6,1-1.2,2.1-1.7,3.1c-0.5-1.1-1.1-2.1-1.7-3.1c-5.5-9.5-13.3-17.4-22.8-23
				c-9.7-5.8-20.9-8.7-32.2-8.6c-11.3-0.2-22.4,2.8-32.1,8.6c-9.4,5.6-17.2,13.5-22.7,23c-5.7,9.8-8.6,21-8.4,32.3v99.9h14.2
				L491.6,228.6z"/>
		</g>
	</g>
</g>
</svg>
