<?xml version="1.0" encoding="utf-8"?>
<!-- Generator: Adobe Illustrator 27.0.0, SVG Export Plug-In . SVG Version: 6.00 Build 0)  -->
<svg version="1.1" id="Layer_1" xmlns="http://www.w3.org/2000/svg" xmlns:xlink="http://www.w3.org/1999/xlink" x="0px" y="0px"
	 viewBox="0 0 220 220" style="enable-background:new 0 0 220 220;" xml:space="preserve">
<style type="text/css">
	.st0{fill:url(#SVGID_1_);}
	.st1{fill:url(#SVGID_00000168118227192042048490000014078720200908270732_);}
	.st2{fill:url(#SVGID_00000165192556545258884280000002708528685771585168_);}
	.st3{fill:url(#SVGID_00000119839894167205084460000013867277518313840771_);}
</style>
<g>
	<linearGradient id="SVGID_1_" gradientUnits="userSpaceOnUse" x1="15.8562" y1="87.4746" x2="171.1587" y2="87.4746">
		<stop  offset="0" style="stop-color:#2E3192"/>
		<stop  offset="0.145" style="stop-color:#2D3896"/>
		<stop  offset="0.358" style="stop-color:#2C4CA3"/>
		<stop  offset="0.614" style="stop-color:#2B6CB9"/>
		<stop  offset="0.9" style="stop-color:#2999D6"/>
		<stop  offset="1" style="stop-color:#29ABE2"/>
	</linearGradient>
	<path class="st0" d="M16.1,110.7c0,1.9-0.2,3.9,0.5,5.7c1.3-1.3,0.7-3,0.7-4.5c0-14.1,0-28.2,0.1-42.4c0,14.1,0,28.2-0.1,42.4
		c0,1.5,0.6,3.2-0.7,4.5c0.4,11.3,3.9,21.6,9.7,31.1c2.7,4.4,5.6,8.5,8.8,12.4c1.5,1.9,3.1,3.7,4.8,5.5c1.1,1.1,2.1,2.3,3.3,3.3
		l6.9-7.2c-1.1-1.1-2.2-2.2-3.3-3.3c-1.7-1.7-3.2-3.5-4.8-5.4c-0.1-0.1-0.3-0.3-0.4-0.5c-10.3-12.7-15.7-27.2-15.5-43.8
		c0.3-23.8,0.1-47.6,0-71.5c0-2.6,0.7-3.4,3.3-3.7C51,30.8,72,26.2,92,17.5c1.2-0.6,2.2-0.4,3.4,0.1c19.5,8.3,39.9,13.1,60.9,15.4
		c0,0,0.1,0,0.1,0c3.7,0.4,4.9,1.6,4.8,5.3l-6.4,6.7l6.4-6.7v0.3c0,2.2-0.1,4.4-0.1,6.6l8.8-9.2l1.2-1.3v-8.4c0-0.9,0.2-2.1-1.3-2
		c-1.6-0.1-3.2-0.2-4.8-0.4h0c-24.1-2.1-47.5-7.1-69.7-17.3c-1.2-0.6-2.2-0.6-3.4,0C68.3,17.6,43.3,22.6,17.5,24.4c0,0,0,0,0,0
		c-2.6,0.5-1.3,2.5-1.3,3.8C16.1,55.7,16.1,83.2,16.1,110.7z"/>
	
		<linearGradient id="SVGID_00000175312457594295846380000002207441695169113279_" gradientUnits="userSpaceOnUse" x1="93.9682" y1="127.5916" x2="153.1573" y2="127.5916">
		<stop  offset="0" style="stop-color:#2E3192"/>
		<stop  offset="0.145" style="stop-color:#2D3896"/>
		<stop  offset="0.358" style="stop-color:#2C4CA3"/>
		<stop  offset="0.614" style="stop-color:#2B6CB9"/>
		<stop  offset="0.9" style="stop-color:#2999D6"/>
		<stop  offset="1" style="stop-color:#29ABE2"/>
	</linearGradient>
	<path style="fill:url(#SVGID_00000175312457594295846380000002207441695169113279_);" d="M94,180.9c0.6,0,1,0,1.3-0.1
		c15.5-7.1,29.8-16,41.3-28.8c10.1-11.2,16.5-24.1,16.6-39.5c0.1-12.7,0.1-25.4,0.1-38.1L94,136.3V180.9z"/>
	
		<linearGradient id="SVGID_00000031899758414996068190000008350847238983351444_" gradientUnits="userSpaceOnUse" x1="93.9682" y1="70.6633" x2="154.8319" y2="70.6633">
		<stop  offset="0" style="stop-color:#2E3192"/>
		<stop  offset="0.145" style="stop-color:#2D3896"/>
		<stop  offset="0.358" style="stop-color:#2C4CA3"/>
		<stop  offset="0.614" style="stop-color:#2B6CB9"/>
		<stop  offset="0.9" style="stop-color:#2999D6"/>
		<stop  offset="1" style="stop-color:#29ABE2"/>
	</linearGradient>
	<path style="fill:url(#SVGID_00000031899758414996068190000008350847238983351444_);" d="M153.2,43.9c0-2.3-0.7-3.1-2.9-3.3
		c-0.3,0-0.6-0.1-1-0.1c-9.3-1.2-18.4-3-27.5-5.3c-9.5-2.4-18.7-5.4-27.9-9.2v72.4v17.2l59.2-61.9c0-2.2,0-4.5,0-6.8l1.7-1.7
		l-1.7,1.7V43.9z"/>
	
		<linearGradient id="SVGID_00000021817180648042683690000010953451629416661159_" gradientUnits="userSpaceOnUse" x1="-0.3661" y1="110.3898" x2="221.3661" y2="110.3898">
		<stop  offset="0" style="stop-color:#2E3192"/>
		<stop  offset="0.145" style="stop-color:#2D3896"/>
		<stop  offset="0.358" style="stop-color:#2C4CA3"/>
		<stop  offset="0.614" style="stop-color:#2B6CB9"/>
		<stop  offset="0.9" style="stop-color:#2999D6"/>
		<stop  offset="1" style="stop-color:#29ABE2"/>
	</linearGradient>
	<path style="fill:url(#SVGID_00000021817180648042683690000010953451629416661159_);" d="M205,2.9l-33.9,35.4l-1.2,1.3l-8.8,9.3
		c0,5.7,0,11.4,0,17.2c0,3.3,0,6.6,0,10c0,10.2-0.3,20.3,0.1,30.5c1,23.2-8.4,41.7-25,57.2c-11.8,11-25.4,19.2-40.1,25.6
		c-1.4,0.6-2.7,0.9-4.1,0.2c-11.1-5.2-21.6-11.1-31.1-18.5c-3.1-2.4-6.1-5-9-7.7l-6.9,7.2l-45.3,47.4H16l37.9-39.6
		c11.4,8.9,24.4,16,38.1,22c1.4,0.6,2.5,0.3,3.8-0.2c21.6-8.5,40.8-20.5,56-38.3c10.9-12.8,17.9-27.4,18.9-44.5
		c0.1-0.8,0.4-1.7,0.4-2.5c0-19.7,0.1-39.4,0.1-59.1l50.3-52.6H205z"/>
</g>
</svg>
