<?xml version="1.0" encoding="utf-8"?>
<!-- Generator: Adobe Illustrator 26.0.0, SVG Export Plug-In . SVG Version: 6.00 Build 0)  -->
<svg version="1.1" id="Layer_1" xmlns="http://www.w3.org/2000/svg" xmlns:xlink="http://www.w3.org/1999/xlink" x="0px" y="0px"
	 viewBox="0 0 220 220" style="enable-background:new 0 0 220 220;" xml:space="preserve">
<style type="text/css">
	.st0{fill:url(#Path_30102_00000052098261471083981390000013439081497398065058_);}
	.st1{fill:url(#Path_30103_00000035516107574789244910000011437645311759955610_);}
	.st2{fill:url(#Path_30104_00000135678104533797835420000014217167573421644934_);}
	.st3{fill:url(#Path_30105_00000065789065651667813920000002602247142435434890_);}
</style>
<g id="Group_2624" transform="translate(-1109.849 107.383)">
	
		<linearGradient id="Path_30102_00000128452763037842483400000005253046625478708612_" gradientUnits="userSpaceOnUse" x1="261.5201" y1="543.3177" x2="261.5173" y2="543.1431" gradientTransform="matrix(544.6304 0 0 -799.1403 -141210.7344 434126)">
		<stop  offset="2.700000e-02" style="stop-color:#1B1464"/>
		<stop  offset="0.145" style="stop-color:#1B1867"/>
		<stop  offset="0.275" style="stop-color:#1C2572"/>
		<stop  offset="0.411" style="stop-color:#1E3B85"/>
		<stop  offset="0.55" style="stop-color:#215A9E"/>
		<stop  offset="0.691" style="stop-color:#2581BF"/>
		<stop  offset="0.816" style="stop-color:#29ABE2"/>
	</linearGradient>
	<path id="Path_30102" style="fill:url(#Path_30102_00000128452763037842483400000005253046625478708612_);" d="M1274.7-11.1
		c-12.2-13.6-23-28.4-32-44.2c0,0,0-0.1,0-0.1c-8-14-14.6-28.7-19.8-43.9c0,0,0,0,0,0c-0.7-2-1.4-4.1-2-6.1c0,0,0,0,0,0
		c-0.2-0.5-0.3-1-0.5-1.5c0.1,0.4,0.2,0.9,0.1,1.3c0,0,0,0,0,0c0,0.4,0,0.7-0.1,1.1c-0.2,1.2-0.5,2.4-0.9,3.6v0
		c-0.9,2.9-2.3,5.9-2.8,7.5c-7,20.8-18.6,40.2-31.3,57.9c-3.6,5-7.6,9.8-11.7,14.7l0,0c-10.3,12.3-20.8,24.7-25.6,40.2
		c-1.3,4.3-2.2,8.8-2.6,13.3c0,0,0,0,0,0.1c-1.1,11.5,0.6,23,4.9,33.7c1.9,4.5,4.3,8.8,7.1,12.8c0,0,0,0,0,0
		c10.1,14.2,26.2,26.3,41.9,30.6c54.2,14.8,83.2-32,83.2-32C1302.9,51.2,1296.4,13.1,1274.7-11.1z M1195.5,60.5
		c-6.7-7.5-10-18.3-7-28.1c0.1-0.2,0.1-0.5,0.2-0.7c3.1-9.7,9.9-17.6,14.8-26.4c5.3-9.4,10.6-18.7,15.9-28.1
		c0.1-0.1,0.9-1.3,0.8-1.4c5.9,10,11.7,20,17.6,30c4.7,7.9,11.2,15.5,13.5,24.7c0.1,0.4,0.2,0.8,0.3,1.2c2.1,10-1.2,21.1-7.6,28.9
		C1231.9,75.7,1207.9,74.4,1195.5,60.5z"/>
	<g id="Group_2623" transform="translate(1139.849 -107.383)">
		
			<linearGradient id="Path_30103_00000128484602214571924820000003658295508815569315_" gradientUnits="userSpaceOnUse" x1="-878.5167" y1="650.6459" x2="-878.5167" y2="650.4767" gradientTransform="matrix(273.926 0 0 -669.8229 240765.3281 435861.75)">
			<stop  offset="0" style="stop-color:#2E3192"/>
			<stop  offset="0.145" style="stop-color:#2D3896"/>
			<stop  offset="0.358" style="stop-color:#2C4CA3"/>
			<stop  offset="0.614" style="stop-color:#2B6CB9"/>
			<stop  offset="0.9" style="stop-color:#2999D6"/>
			<stop  offset="1" style="stop-color:#29ABE2"/>
		</linearGradient>
		<path id="Path_30103" style="fill:url(#Path_30103_00000128484602214571924820000003658295508815569315_);" d="M79.5,18.6
			c0,0,1.3,44.4,39.1,88.9c0,0,32.7,37.7,21.9,77.1c0.4-1.3,2.7-3.3,3.5-4.4c2.8-4,5.1-8.3,6.8-12.9c6.6-17.6,3.8-37.2-4.9-53.5
			c-6.8-12.8-17.1-23-25.7-34.6c-14.9-20-26.4-42.6-35-66C83.6,9,81,4.8,80.3,0.4C80.3,0.4,78.2,14.5,79.5,18.6z"/>
		
			<linearGradient id="Path_30104_00000016769274563896348780000012890356207855906703_" gradientUnits="userSpaceOnUse" x1="-877.8123" y1="650.6441" x2="-877.8123" y2="650.4764" gradientTransform="matrix(276.1525 0 0 -689.7242 242453.0156 448815.4375)">
			<stop  offset="0" style="stop-color:#2E3192"/>
			<stop  offset="0.145" style="stop-color:#2D3896"/>
			<stop  offset="0.358" style="stop-color:#2C4CA3"/>
			<stop  offset="0.614" style="stop-color:#2B6CB9"/>
			<stop  offset="0.9" style="stop-color:#2999D6"/>
			<stop  offset="1" style="stop-color:#29ABE2"/>
		</linearGradient>
		<path id="Path_30104" style="fill:url(#Path_30104_00000016769274563896348780000012890356207855906703_);" d="M78.8,21.3
			c0,0-3.9,45.4-39.5,90.6c0,0-30.9,38.4-19.5,77.6c-0.4-1.3-2.7-3.2-3.5-4.4c-2.8-4-5.1-8.2-6.9-12.8c-6.8-17.4-5.5-38,2.6-54.5
			c6.3-12.9,16.1-23.1,24.2-34.8c7.6-11,15.1-22,21.7-33.6c4.7-8.2,9.4-16.5,12.3-25.5C83.5-17,78.8,8.1,81,1.7
			C80,4.6,79.8,9,79.8,12C79.8,15.1,79.8,18.3,78.8,21.3z"/>
	</g>
	
		<radialGradient id="Path_30105_00000060720815650576780100000015300982951116830353_" cx="261.6483" cy="544.0252" r="0.1313" gradientTransform="matrix(303.1501 0 0 -303.0805 -78098.2344 164954.1719)" gradientUnits="userSpaceOnUse">
		<stop  offset="0" style="stop-color:#29ABE2"/>
		<stop  offset="0.145" style="stop-color:#29A3DD"/>
		<stop  offset="0.358" style="stop-color:#2A8FD0"/>
		<stop  offset="0.614" style="stop-color:#2B6FBA"/>
		<stop  offset="0.9" style="stop-color:#2D429D"/>
		<stop  offset="1" style="stop-color:#2E3192"/>
	</radialGradient>
	<path id="Path_30105" style="fill:url(#Path_30105_00000060720815650576780100000015300982951116830353_);" d="M1248.5,97.1
		c-24.9,28.3-47.8,8.8-47.8,8.8c-31.3-22.9-12.5-74.6-12.5-74.6c0.1,0.1,0.3,0.3,0.4,0.4c-0.1,0.2-0.2,0.5-0.2,0.7
		c-2.9,9.8,0.4,20.6,7,28.1c12.4,14,36.4,15.2,48.5,0.2c6.4-7.9,9.6-18.9,7.6-28.9c-0.1-0.4-0.2-0.8-0.3-1.2
		c0.6-0.9,0.9-1.4,0.9-1.4C1267.7,71.8,1248.5,97.1,1248.5,97.1z"/>
</g>
</svg>
