<?xml version="1.0" encoding="utf-8"?>
<!-- Generator: Adobe Illustrator 27.0.0, SVG Export Plug-In . SVG Version: 6.00 Build 0)  -->
<svg version="1.1" id="Layer_1" xmlns="http://www.w3.org/2000/svg" xmlns:xlink="http://www.w3.org/1999/xlink" x="0px" y="0px"
	 viewBox="0 0 225 225" style="enable-background:new 0 0 225 225;" xml:space="preserve">
<style type="text/css">
	.st0{fill:#FFFFFF;}
</style>
<g>
	<path class="st0" d="M18.1,112.8c0,1.9-0.2,3.9,0.5,5.7c1.3-1.3,0.7-3,0.7-4.5c0-14.1,0-28.2,0.1-42.4c0,14.1,0,28.2-0.1,42.4
		c0,1.5,0.6,3.2-0.7,4.5c0.4,11.3,3.9,21.6,9.7,31.1c2.7,4.4,5.6,8.5,8.8,12.4c1.5,1.9,3.1,3.7,4.8,5.5c1.1,1.1,2.1,2.3,3.3,3.3
		l6.9-7.2c-1.1-1.1-2.2-2.2-3.3-3.3c-1.7-1.7-3.2-3.5-4.8-5.4c-0.1-0.1-0.3-0.3-0.4-0.5c-10.3-12.7-15.7-27.2-15.5-43.8
		c0.3-23.8,0.1-47.6,0-71.5c0-2.6,0.7-3.4,3.3-3.7C53,33,74,28.3,94,19.6c1.2-0.6,2.2-0.4,3.4,0.1c19.5,8.3,39.9,13.1,60.9,15.4
		c0,0,0.1,0,0.1,0c3.7,0.4,4.9,1.6,4.8,5.3l-6.4,6.7l6.4-6.7v0.3c0,2.2-0.1,4.4-0.1,6.6l8.8-9.2l1.2-1.3v-8.4c0-0.9,0.2-2.1-1.3-2
		c-1.6-0.1-3.2-0.2-4.8-0.4h0C142.9,24,119.5,19,97.3,8.8c-1.2-0.6-2.2-0.6-3.4,0C70.3,19.7,45.3,24.7,19.5,26.5c0,0,0,0,0,0
		c-2.6,0.5-1.3,2.5-1.3,3.8C18.1,57.8,18.1,85.3,18.1,112.8z"/>
	<path class="st0" d="M96,183c0.6,0,1,0,1.3-0.1c15.5-7.1,29.8-16,41.3-28.8c10.1-11.2,16.5-24.1,16.6-39.5
		c0.1-12.7,0.1-25.4,0.1-38.1L96,138.4V183z"/>
	<path class="st0" d="M155.2,46c0-2.3-0.7-3.1-2.9-3.3c-0.3,0-0.6-0.1-1-0.1c-9.3-1.2-18.4-3-27.5-5.3c-9.5-2.4-18.7-5.4-27.9-9.2
		v72.4v17.2l59.2-61.9c0-2.2,0-4.5,0-6.8l1.7-1.7l-1.7,1.7V46z"/>
	<path class="st0" d="M207,5.1l-33.9,35.4l-1.2,1.3l-8.8,9.3c0,5.7,0,11.4,0,17.2c0,3.3,0,6.6,0,10c0,10.2-0.3,20.3,0.1,30.5
		c1,23.2-8.4,41.7-25,57.2c-11.8,11-25.4,19.2-40.1,25.6c-1.4,0.6-2.7,0.9-4.1,0.2c-11.1-5.2-21.6-11.1-31.1-18.5
		c-3.1-2.4-6.1-5-9-7.7l-6.9,7.2L1.6,219.9H18l37.9-39.6c11.4,8.9,24.4,16,38.1,22c1.4,0.6,2.5,0.3,3.8-0.2
		c21.6-8.5,40.8-20.5,56-38.3c10.9-12.8,17.9-27.4,18.9-44.5c0.1-0.8,0.4-1.7,0.4-2.5c0-19.7,0.1-39.4,0.1-59.1l50.3-52.6H207z"/>
</g>
</svg>
