<?xml version="1.0" encoding="utf-8"?>
<!-- Generator: Adobe Illustrator 26.0.0, SVG Export Plug-In . SVG Version: 6.00 Build 0)  -->
<svg version="1.1" id="Layer_1" xmlns="http://www.w3.org/2000/svg" xmlns:xlink="http://www.w3.org/1999/xlink" x="0px" y="0px"
	 viewBox="0 0 225 225" style="enable-background:new 0 0 225 225;" xml:space="preserve">
<style type="text/css">
	.st0{fill:#FFFFFF;}
	.st1{fill:#E5E5E5;}
</style>
<g>
	<path id="Path_30112" class="st0" d="M164.5,100.9c-12.3-13.6-23-28.4-32.1-44.3c0,0,0-0.1,0-0.1c-8-14-14.6-28.8-19.9-44l0,0
		c-0.7-2-1.4-4.1-2-6.1l0,0c-0.2-0.5-0.3-1-0.5-1.5c0.1,0.4,0.2,0.9,0.1,1.3l0,0c0,0.4,0,0.7-0.1,1.1c-0.2,1.2-0.5,2.4-0.9,3.6l0,0
		c-0.9,2.9-2.3,5.9-2.9,7.6c-7,20.8-18.6,40.2-31.4,58c-3.6,5-7.6,9.9-11.7,14.7l0,0c-10.3,12.4-20.9,24.7-25.6,40.3
		c-1.3,4.3-2.2,8.8-2.6,13.3c0,0,0,0,0,0c-1.1,11.5,0.6,23.1,4.9,33.8c1.9,4.5,4.3,8.9,7.2,12.8l0,0c10.1,14.2,26.2,26.4,42,30.7
		c54.3,14.8,83.3-32,83.3-32C192.8,163.3,186.3,125.1,164.5,100.9z M85.2,172.6c-7-7.6-9.7-18.2-7.1-28.2c0.1-0.2,0.1-0.5,0.2-0.7
		c3.1-9.7,9.9-17.7,14.9-26.4c5.3-9.4,10.6-18.8,15.9-28.2c0.1-0.1,0.9-1.3,0.8-1.4c5.9,10,11.7,20,17.7,30
		c4.7,8,11.2,15.5,13.5,24.8c0.1,0.4,0.2,0.8,0.3,1.2c1.8,10.3-1,20.9-7.6,29C121.6,187.8,97.6,186.6,85.2,172.6L85.2,172.6z"/>
	<g id="Group_2629">
		<path id="Path_30113" class="st1" d="M109.1,23c0,0,1.3,44.5,39.1,89.1c0,0,32.7,37.8,21.9,77.3c0.4-1.3,2.7-3.3,3.5-4.4
			c2.8-4,5.1-8.4,6.8-12.9c6.6-17.6,3.8-37.3-4.9-53.6c-6.8-12.8-17.1-23.1-25.8-34.6c-14.8-20.3-26.6-42.5-35.1-66.1
			c-1.5-4.2-4.1-8.4-4.9-12.8C109.8,4.8,107.8,19,109.1,23z"/>
		<path id="Path_30114" class="st1" d="M108.4,25.8c0,0-3.9,45.5-39.6,90.8c0,0-30.9,38.5-19.6,77.7c-0.4-1.3-2.7-3.2-3.5-4.4
			c-2.8-4-5.1-8.3-6.9-12.8c-6.6-17.8-5.7-37.5,2.6-54.6c6.3-13,16.2-23.1,24.3-34.9c7.6-11,15.1-22.1,21.8-33.6
			c5-8.1,9.1-16.6,12.3-25.6c13.2-41,8.6-15.9,10.7-22.2c-0.9,3.4-1.2,6.8-1.2,10.3C109.5,19.6,109.2,22.7,108.4,25.8z"/>
	</g>
	<path id="Path_30115" class="st1" d="M138.3,209.3c-25,28.3-47.9,8.8-47.9,8.8c-31.4-22.9-12.5-74.8-12.5-74.8
		c0.1,0.1,0.2,0.3,0.4,0.4c-0.1,0.2-0.2,0.5-0.2,0.7c-2.6,10,0.1,20.6,7.1,28.2c12.5,14,36.5,15.2,48.6,0.2c6.6-8.1,9.4-18.7,7.6-29
		c-0.1-0.4-0.2-0.8-0.3-1.2c0.6-0.9,0.9-1.4,0.9-1.4C157.6,184,138.3,209.3,138.3,209.3z"/>
</g>
</svg>
